{
  "accessors": [
    {
      "bufferView": 1,
      "componentType": 5126,
      "count": 65532,
      "max": [
        175.25999450683594,
        175.25999450683594,
        2030.68017578125
      ],
      "min": [
        -1407.207763671875,
        -175.25999450683594,
        0
      ],
      "type": "VEC3"
    },
    {
      "bufferView": 1,
      "byteOffset": 786384,
      "componentType": 5126,
      "count": 65532,
      "max": [
        1,
        1,
        1
      ],
      "min": [
        -1,
        -1,
        -1
      ],
      "type": "VEC3"
    },
    {
      "bufferView": 2,
      "componentType": 5126,
      "count": 65532,
      "max": [
        1,
        1,
        0.99998354911804199,
        1
      ],
      "min": [
        -1,
        -1,
        -0.99999070167541504,
        -1
      ],
      "type": "VEC4"
    },
    {
      "bufferView": 0,
      "componentType": 5125,
      "count": 303201,
      "max": [
        65531
      ],
      "min": [
        0
      ],
      "type": "SCALAR"
    },
    {
      "bufferView": 1,
      "byteOffset": 1572768,
      "componentType": 5126,
      "count": 65532,
      "max": [
        138.705078125,
        155.67364501953125,
        1736.925048828125
      ],
      "min": [
        -1487.226318359375,
        -165.56498718261719,
        1032.3271484375
      ],
      "type": "VEC3"
    },
    {
      "bufferView": 1,
      "byteOffset": 2359152,
      "componentType": 5126,
      "count": 65532,
      "max": [
        1,
        1,
        1
      ],
      "min": [
        -1,
        -1,
        -1
      ],
      "type": "VEC3"
    },
    {
      "bufferView": 2,
      "byteOffset": 1048512,
      "componentType": 5126,
      "count": 65532,
      "max": [
        1,
        0.99976211786270142,
        1,
        1
      ],
      "min": [
        -1,
        -0.99967718124389648,
        -1,
        -1
      ],
      "type": "VEC4"
    },
    {
      "bufferView": 0,
      "byteOffset": 1212804,
      "componentType": 5125,
      "count": 310788,
      "max": [
        65531
      ],
      "min": [
        0
      ],
      "type": "SCALAR"
    },
    {
      "bufferView": 1,
      "byteOffset": 3145536,
      "componentType": 5126,
      "count": 65532,
      "max": [
        155.85040283203125,
        16.686731338500977,
        1038.65625
      ],
      "min": [
        133.81459045410156,
        -3.1643218994140625,
        1032.3271484375
      ],
      "type": "VEC3"
    },
    {
      "bufferView": 1,
      "byteOffset": 3931920,
      "componentType": 5126,
      "count": 65532,
      "max": [
        1,
        1,
        1
      ],
      "min": [
        -1,
        -1,
        -1
      ],
      "type": "VEC3"
    },
    {
      "bufferView": 2,
      "byteOffset": 2097024,
      "componentType": 5126,
      "count": 65532,
      "max": [
        0.99988281726837158,
        1,
        1,
        1
      ],
      "min": [
        -1,
        -1,
        -1,
        -1
      ],
      "type": "VEC4"
    },
    {
      "bufferView": 0,
      "byteOffset": 2455956,
      "componentType": 5125,
      "count": 314370,
      "max": [
        65531
      ],
      "min": [
        0
      ],
      "type": "SCALAR"
    },
    {
      "bufferView": 1,
      "byteOffset": 4718304,
      "componentType": 5126,
      "count": 65532,
      "max": [
        152.16181945800781,
        1.7261679172515869,
        1038.65625
      ],
      "min": [
        132.37611389160156,
        -20.461830139160156,
        1032.3271484375
      ],
      "type": "VEC3"
    },
    {
      "bufferView": 1,
      "byteOffset": 5504688,
      "componentType": 5126,
      "count": 65532,
      "max": [
        1,
        1,
        1
      ],
      "min": [
        -1,
        -1,
        -1
      ],
      "type": "VEC3"
    },
    {
      "bufferView": 2,
      "byteOffset": 3145536,
      "componentType": 5126,
      "count": 65532,
      "max": [
        1,
        1,
        1,
        1
      ],
      "min": [
        -1,
        -0.99988293647766113,
        -1,
        -1
      ],
      "type": "VEC4"
    },
    {
      "bufferView": 0,
      "byteOffset": 3713436,
      "componentType": 5125,
      "count": 366180,
      "max": [
        65531
      ],
      "min": [
        0
      ],
      "type": "SCALAR"
    },
    {
      "bufferView": 1,
      "byteOffset": 6291072,
      "componentType": 5126,
      "count": 57543,
      "max": [
        137.30580139160156,
        -6.2744584083557129,
        1037.2159423828125
      ],
      "min": [
        133.81466674804688,
        -16.773281097412109,
        1033.72998046875
      ],
      "type": "VEC3"
    },
    {
      "bufferView": 1,
      "byteOffset": 6981588,
      "componentType": 5126,
      "count": 57543,
      "max": [
        0.99999153614044189,
        1,
        0.99999117851257324
      ],
      "min": [
        -0.99999237060546875,
        -0.94164139032363892,
        -0.99999135732650757
      ],
      "type": "VEC3"
    },
    {
      "bufferView": 2,
      "byteOffset": 4194048,
      "componentType": 5126,
      "count": 57543,
      "max": [
        0.99988281726837158,
        0.99598294496536255,
        0.99999779462814331,
        1
      ],
      "min": [
        -1,
        -0.99959379434585571,
        -0.99999880790710449,
        -1
      ],
      "type": "VEC4"
    },
    {
      "bufferView": 0,
      "byteOffset": 5178156,
      "componentType": 5125,
      "count": 342987,
      "max": [
        57542
      ],
      "min": [
        0
      ],
      "type": "SCALAR"
    },
    {
      "bufferView": 1,
      "byteOffset": 7672104,
      "componentType": 5126,
      "count": 4156,
      "max": [
        -1701.596435546875,
        28.635366439819336,
        1630.5565185546875
      ],
      "min": [
        -1758.7811279296875,
        -28.559799194335938,
        1567.9697265625
      ],
      "type": "VEC3"
    },
    {
      "bufferView": 1,
      "byteOffset": 7721976,
      "componentType": 5126,
      "count": 4156,
      "max": [
        0.99978888034820557,
        1,
        0.99920499324798584
      ],
      "min": [
        -0.99979013204574585,
        -1,
        -0.99919527769088745
      ],
      "type": "VEC3"
    },
    {
      "bufferView": 2,
      "byteOffset": 5114736,
      "componentType": 5126,
      "count": 4156,
      "max": [
        0.98355686664581299,
        1,
        0.9671931266784668,
        1
      ],
      "min": [
        -0.99670302867889404,
        -1,
        -0.95144355297088623,
        -1
      ],
      "type": "VEC4"
    },
    {
      "bufferView": 0,
      "byteOffset": 6550104,
      "componentType": 5125,
      "count": 23040,
      "max": [
        4155
      ],
      "min": [
        0
      ],
      "type": "SCALAR"
    },
    {
      "bufferView": 1,
      "byteOffset": 7771848,
      "componentType": 5126,
      "count": 2513,
      "max": [
        -1705.8531494140625,
        11.903643608093262,
        1659.606689453125
      ],
      "min": [
        -1733.7550048828125,
        -11.828080177307129,
        1623.059814453125
      ],
      "type": "VEC3"
    },
    {
      "bufferView": 1,
      "byteOffset": 7802004,
      "componentType": 5126,
      "count": 2513,
      "max": [
        0.9994242787361145,
        0.9999997615814209,
        0.9890398383140564
      ],
      "min": [
        -0.99960231781005859,
        -0.99999946355819702,
        -0.79330885410308838
      ],
      "type": "VEC3"
    },
    {
      "bufferView": 2,
      "byteOffset": 5181232,
      "componentType": 5126,
      "count": 2513,
      "max": [
        0.9875262975692749,
        1,
        0.27240750193595886,
        1
      ],
      "min": [
        -0.97268331050872803,
        -1,
        -0.35396692156791687,
        -1
      ],
      "type": "VEC4"
    },
    {
      "bufferView": 0,
      "byteOffset": 6642264,
      "componentType": 5125,
      "count": 14418,
      "max": [
        2512
      ],
      "min": [
        0
      ],
      "type": "SCALAR"
    },
    {
      "bufferView": 1,
      "byteOffset": 7832160,
      "componentType": 5126,
      "count": 1213,
      "max": [
        -1710.105224609375,
        7.3767457008361816,
        1656.064208984375
      ],
      "min": [
        -1732.8538818359375,
        -7.1816725730895996,
        1583.5062255859375
      ],
      "type": "VEC3"
    },
    {
      "bufferView": 1,
      "byteOffset": 7846716,
      "componentType": 5126,
      "count": 1213,
      "max": [
        0.99932467937469482,
        0.99999964237213135,
        0.9961540699005127
      ],
      "min": [
        -0.99932068586349487,
        -0.99999964237213135,
        -0.99637490510940552
      ],
      "type": "VEC3"
    },
    {
      "bufferView": 2,
      "byteOffset": 5221440,
      "componentType": 5126,
      "count": 1213,
      "max": [
        0.99705010652542114,
        0.99880564212799072,
        0.99753665924072266,
        1
      ],
      "min": [
        -0.99874216318130493,
        -0.99999988079071045,
        -0.99763131141662598,
        -1
      ],
      "type": "VEC4"
    },
    {
      "bufferView": 0,
      "byteOffset": 6699936,
      "componentType": 5125,
      "count": 4062,
      "max": [
        1212
      ],
      "min": [
        0
      ],
      "type": "SCALAR"
    }
  ],
  "asset": {
    "extras": {
      "author": "Zuo Modern (https://sketchfab.com/zuo)",
      "license": "CC-BY-NC-ND-4.0 (http://creativecommons.org/licenses/by-nc-nd/4.0/)",
      "source": "https://sketchfab.com/models/ae081628b9d2407982e37d7b72d4b01e",
      "title": "Galactic Floor Lamp - 50019"
    },
    "generator": "Sketchfab-3.18.7",
    "version": "2.0"
  },
  "bufferViews": [
    {
      "buffer": 0,
      "byteLength": 6716184,
      "byteOffset": 0,
      "name": "floatBufferViews",
      "target": 34963
    },
    {
      "buffer": 0,
      "byteLength": 7861272,
      "byteOffset": 6716184,
      "byteStride": 12,
      "name": "floatBufferViews",
      "target": 34962
    },
    {
      "buffer": 0,
      "byteLength": 5240848,
      "byteOffset": 14577456,
      "byteStride": 16,
      "name": "floatBufferViews",
      "target": 34962
    }
  ],
  "buffers": [
    {
      "byteLength": 19818304,
      "uri": "scene.bin"
    }
  ],
  "materials": [
    {
      "doubleSided": true,
      "emissiveFactor": [
        0,
        0,
        0
      ],
      "name": "AM138_099_chrome",
      "pbrMetallicRoughness": {
        "baseColorFactor": [
          1,
          1,
          1,
          1
        ],
        "metallicFactor": 1,
        "roughnessFactor": 0.10280106710000003
      }
    },
    {
      "alphaMode": "BLEND",
      "doubleSided": true,
      "emissiveFactor": [
        0,
        0,
        0
      ],
      "name": "AM138_099_glass",
      "pbrMetallicRoughness": {
        "baseColorFactor": [
          1,
          1,
          1,
          0.21255716459999999
        ],
        "metallicFactor": 0.62280868899999997,
        "roughnessFactor": 0.13328887199999995
      }
    },
    {
      "doubleSided": true,
      "emissiveFactor": [
        0,
        0,
        0
      ],
      "name": "AM138_099_metal",
      "pbrMetallicRoughness": {
        "baseColorFactor": [
          1,
          1,
          1,
          1
        ],
        "metallicFactor": 0.91549161590000006,
        "roughnessFactor": 0
      }
    },
    {
      "doubleSided": true,
      "emissiveFactor": [
        1,
        0.41743966500000002,
        0.010547022000000001
      ],
      "name": "Material_21",
      "pbrMetallicRoughness": {
        "baseColorFactor": [
          0.44046417290000001,
          0.17556622290000001,
          0.0028549697,
          1
        ],
        "metallicFactor": 0,
        "roughnessFactor": 0.59999999999999998
      }
    }
  ],
  "meshes": [
    {
      "name": "Circle001_AM138_099_chrome_0",
      "primitives": [
        {
          "attributes": {
            "NORMAL": 1,
            "POSITION": 0,
            "TANGENT": 2
          },
          "indices": 3,
          "material": 0,
          "mode": 4
        }
      ]
    },
    {
      "name": "Circle001_AM138_099_chrome_0",
      "primitives": [
        {
          "attributes": {
            "NORMAL": 5,
            "POSITION": 4,
            "TANGENT": 6
          },
          "indices": 7,
          "material": 0,
          "mode": 4
        }
      ]
    },
    {
      "name": "Circle001_AM138_099_chrome_0",
      "primitives": [
        {
          "attributes": {
            "NORMAL": 9,
            "POSITION": 8,
            "TANGENT": 10
          },
          "indices": 11,
          "material": 0,
          "mode": 4
        }
      ]
    },
    {
      "name": "Circle001_AM138_099_chrome_0",
      "primitives": [
        {
          "attributes": {
            "NORMAL": 13,
            "POSITION": 12,
            "TANGENT": 14
          },
          "indices": 15,
          "material": 0,
          "mode": 4
        }
      ]
    },
    {
      "name": "Circle001_AM138_099_chrome_0",
      "primitives": [
        {
          "attributes": {
            "NORMAL": 17,
            "POSITION": 16,
            "TANGENT": 18
          },
          "indices": 19,
          "material": 0,
          "mode": 4
        }
      ]
    },
    {
      "name": "AM138_099_lightbulb_glass_AM138_099_glass_0",
      "primitives": [
        {
          "attributes": {
            "NORMAL": 21,
            "POSITION": 20,
            "TANGENT": 22
          },
          "indices": 23,
          "material": 1,
          "mode": 4
        }
      ]
    },
    {
      "name": "AM138_099_lightbulb_metal_AM138_099_metal_0",
      "primitives": [
        {
          "attributes": {
            "NORMAL": 25,
            "POSITION": 24,
            "TANGENT": 26
          },
          "indices": 27,
          "material": 2,
          "mode": 4
        }
      ]
    },
    {
      "name": "Object003_Material #21_0",
      "primitives": [
        {
          "attributes": {
            "NORMAL": 29,
            "POSITION": 28,
            "TANGENT": 30
          },
          "indices": 31,
          "material": 3,
          "mode": 4
        }
      ]
    }
  ],
  "nodes": [
    {
      "children": [
        1
      ],
      "name": "RootNode (gltf orientation matrix)",
      "rotation": [
        -0.70710678118654746,
        -0,
        -0,
        0.70710678118654757
      ]
    },
    {
      "children": [
        2
      ],
      "name": "RootNode (model correction matrix)"
    },
    {
      "children": [
        3
      ],
      "matrix": [
        1,
        0,
        0,
        0,
        0,
        0,
        1,
        0,
        0,
        -1,
        0,
        0,
        0,
        0,
        0,
        1
      ],
      "name": "d09c3855433d45bba0f14a6b28755977.fbx"
    },
    {
      "children": [
        4,
        10,
        12,
        14
      ],
      "name": "RootNode"
    },
    {
      "children": [
        5,
        6,
        7,
        8,
        9
      ],
      "matrix": [
        -0.81915211756998563,
        -1.5099580263910894e-07,
        -0.57357633169490674,
        0,
        -0.57357633169492539,
        1.5099580252808664e-07,
        0.81915211756997264,
        0,
        -3.7080912951292788e-08,
        0.99999999999997724,
        -2.1029615004941604e-07,
        0,
        -424.45611572265625,
        -2.54095458984375,
        271.41476440429688,
        1
      ],
      "name": "Circle001"
    },
    {
      "mesh": 0,
      "name": "Circle001_AM138_099_chrome_0"
    },
    {
      "mesh": 1,
      "name": "Circle001_AM138_099_chrome_0"
    },
    {
      "mesh": 2,
      "name": "Circle001_AM138_099_chrome_0"
    },
    {
      "mesh": 3,
      "name": "Circle001_AM138_099_chrome_0"
    },
    {
      "mesh": 4,
      "name": "Circle001_AM138_099_chrome_0"
    },
    {
      "children": [
        11
      ],
      "matrix": [
        -0.80670722855372179,
        -0.17364815212117937,
        -0.56486260866167537,
        -0,
        0.57357647657421018,
        7.8976164696875745e-07,
        -0.81915216165171911,
        -0,
        -0.1422446883268266,
        0.98480775751629612,
        -0.099599846277632076,
        -0,
        -503.7855224609375,
        -280.4608154296875,
        209.30242919921875,
        1
      ],
      "name": "AM138_099_lightbulb_glass"
    },
    {
      "mesh": 5,
      "name": "AM138_099_lightbulb_glass_AM138_099_glass_0"
    },
    {
      "children": [
        13
      ],
      "matrix": [
        -0.80670726187866582,
        -0.1736478165677986,
        -0.56486245318209727,
        -0,
        0.57357649352064777,
        -6.4447523895339032e-07,
        -0.81915200425814927,
        -0,
        -0.14224359293669911,
        0.98480769563517134,
        -0.099600825637329971,
        -0,
        -503.7855224609375,
        -280.4608154296875,
        209.30242919921875,
        1
      ],
      "name": "AM138_099_lightbulb_metal"
    },
    {
      "mesh": 6,
      "name": "AM138_099_lightbulb_metal_AM138_099_metal_0"
    },
    {
      "children": [
        15
      ],
      "matrix": [
        -0.80670730358260068,
        -0.17364814261110256,
        -0.56486239891226431,
        -0,
        0.57357618615243278,
        8.530911737025955e-07,
        -0.81915214671562464,
        -0,
        -0.14224473915063957,
        0.9848076986689841,
        -0.099599757113057616,
        -0,
        -503.7855224609375,
        -280.4608154296875,
        209.30242919921875,
        1
      ],
      "name": "Object003"
    },
    {
      "mesh": 7,
      "name": "Object003_Material #21_0"
    }
  ],
  "scene": 0,
  "scenes": [
    {
      "name": "OSG_Scene",
      "nodes": [
        0
      ]
    }
  ]
}

